<?xml version="1.0" encoding="UTF-8"?>
<svg version="1.1" xmlns="http://www.w3.org/2000/svg" width="100" height="100">
<path d="M0 0 C0.80995422 -0.0065712 1.61990845 -0.0131424 2.45440674 -0.01991272 C5.14180591 -0.0396646 7.82914912 -0.05131325 10.51660156 -0.0612793 C11.89271984 -0.06739259 11.89271984 -0.06739259 13.29663849 -0.07362938 C18.15348588 -0.0944994 23.01030495 -0.10879638 27.8671875 -0.11816406 C32.88210633 -0.1292231 37.89658078 -0.16361445 42.91134262 -0.20333576 C46.76842061 -0.22949413 50.62539268 -0.23785527 54.48255157 -0.24144554 C56.33090461 -0.24631448 58.17925282 -0.25793723 60.02751923 -0.27648354 C62.61766122 -0.3008559 65.20665322 -0.29991352 67.796875 -0.29296875 C68.55762329 -0.30577881 69.31837158 -0.31858887 70.10217285 -0.33178711 C75.26976971 -0.28140023 78.16805587 0.93493802 82.15722656 4.17700195 C85.80661676 8.49882608 85.624666 12.80163969 85.62597656 18.2043457 C85.63739685 19.50415123 85.63739685 19.50415123 85.64904785 20.83021545 C85.6598268 22.65826545 85.66271093 24.48637691 85.65820312 26.31445312 C85.65723079 29.10236868 85.69887478 31.88753031 85.74316406 34.67504883 C85.74837162 36.45564208 85.75105925 38.23624484 85.75097656 40.0168457 C85.76737183 40.84514389 85.78376709 41.67344208 85.80065918 42.52684021 C85.75098265 46.71345894 85.42592683 49.37261771 82.74511719 52.68701172 C78.69850455 56.58054024 75.72203811 56.34964311 70.34619141 56.40161133 C69.53944977 56.4130014 68.73270813 56.42439148 67.90151978 56.43612671 C59.45387242 56.54685015 51.00534912 56.59422429 42.55712891 56.63696289 C38.55083273 56.65922099 34.54547059 56.70096207 30.53955078 56.76000977 C25.70012556 56.83120313 20.86157803 56.86781071 16.02165604 56.88008118 C14.1804601 56.89046558 12.33928984 56.91285148 10.49839401 56.94767761 C-5.71876376 57.23854845 -5.71876376 57.23854845 -10.97314453 52.75708008 C-16.62432 46.48562507 -15.14146587 38.26007582 -15.19287109 30.26586914 C-15.20941094 28.38032675 -15.23667503 26.49484654 -15.27490234 24.60961914 C-15.32981395 21.88695852 -15.3515677 19.16576758 -15.36621094 16.44262695 C-15.38888031 15.6049176 -15.41154968 14.76720825 -15.43490601 13.90411377 C-15.41976462 9.68624848 -15.13843853 7.00235935 -12.43505859 3.66040039 C-8.36605982 -0.23768357 -5.39304245 0.01886124 0 0 Z " fill="#99A1E5" transform="translate(14.8427734375,22.822998046875)"/>
<path d="M0 0 C0.80995422 -0.0065712 1.61990845 -0.0131424 2.45440674 -0.01991272 C5.14180591 -0.0396646 7.82914912 -0.05131325 10.51660156 -0.0612793 C11.89271984 -0.06739259 11.89271984 -0.06739259 13.29663849 -0.07362938 C18.15348588 -0.0944994 23.01030495 -0.10879638 27.8671875 -0.11816406 C32.88210633 -0.1292231 37.89658078 -0.16361445 42.91134262 -0.20333576 C46.76842061 -0.22949413 50.62539268 -0.23785527 54.48255157 -0.24144554 C56.33090461 -0.24631448 58.17925282 -0.25793723 60.02751923 -0.27648354 C62.61766122 -0.3008559 65.20665322 -0.29991352 67.796875 -0.29296875 C68.55762329 -0.30577881 69.31837158 -0.31858887 70.10217285 -0.33178711 C75.26976971 -0.28140023 78.16805587 0.93493802 82.15722656 4.17700195 C85.80661676 8.49882608 85.624666 12.80163969 85.62597656 18.2043457 C85.63739685 19.50415123 85.63739685 19.50415123 85.64904785 20.83021545 C85.6598268 22.65826545 85.66271093 24.48637691 85.65820312 26.31445312 C85.65723079 29.10236868 85.69887478 31.88753031 85.74316406 34.67504883 C85.74837162 36.45564208 85.75105925 38.23624484 85.75097656 40.0168457 C85.76737183 40.84514389 85.78376709 41.67344208 85.80065918 42.52684021 C85.75098265 46.71345894 85.42592683 49.37261771 82.74511719 52.68701172 C78.69850455 56.58054024 75.72203811 56.34964311 70.34619141 56.40161133 C69.53944977 56.4130014 68.73270813 56.42439148 67.90151978 56.43612671 C59.45387242 56.54685015 51.00534912 56.59422429 42.55712891 56.63696289 C38.55083273 56.65922099 34.54547059 56.70096207 30.53955078 56.76000977 C25.70012556 56.83120313 20.86157803 56.86781071 16.02165604 56.88008118 C14.1804601 56.89046558 12.33928984 56.91285148 10.49839401 56.94767761 C-5.71876376 57.23854845 -5.71876376 57.23854845 -10.97314453 52.75708008 C-16.62432 46.48562507 -15.14146587 38.26007582 -15.19287109 30.26586914 C-15.20941094 28.38032675 -15.23667503 26.49484654 -15.27490234 24.60961914 C-15.32981395 21.88695852 -15.3515677 19.16576758 -15.36621094 16.44262695 C-15.38888031 15.6049176 -15.41154968 14.76720825 -15.43490601 13.90411377 C-15.41976462 9.68624848 -15.13843853 7.00235935 -12.43505859 3.66040039 C-8.36605982 -0.23768357 -5.39304245 0.01886124 0 0 Z M-8.29382324 6.97839355 C-10.59392644 10.24320235 -10.41535174 13.45209542 -10.37402344 17.30200195 C-10.37785034 18.08591309 -10.38167725 18.86982422 -10.38562012 19.67749023 C-10.38833696 21.33163744 -10.38099154 22.98582778 -10.36425781 24.63989258 C-10.34284235 27.16886357 -10.36406441 29.6949941 -10.38964844 32.22387695 C-10.38700512 33.83325821 -10.38188005 35.4426377 -10.37402344 37.05200195 C-10.38212036 37.80626465 -10.39021729 38.56052734 -10.39855957 39.33764648 C-10.34122714 42.55485694 -10.17030005 44.71210466 -8.29382324 47.37561035 C-4.97167121 49.81721588 -2.07645268 49.73875015 1.89160156 49.69458008 C3.05326843 49.70509399 3.05326843 49.70509399 4.23840332 49.71582031 C6.79504388 49.73340694 9.350575 49.72177584 11.90722656 49.70825195 C13.68554903 49.71094669 15.46387007 49.71482896 17.2421875 49.71984863 C20.96791624 49.72574456 24.6932612 49.71717782 28.41894531 49.69848633 C33.19421943 49.67569654 37.96859432 49.68881914 42.74383545 49.71277618 C46.41559624 49.7272317 50.08714391 49.72262934 53.75891113 49.71226501 C55.51957302 49.70959704 57.28025428 49.71287 59.04089355 49.72218323 C61.50206743 49.73234503 63.96178606 49.71685448 66.42285156 49.69458008 C67.15024536 49.702677 67.87763916 49.71077393 68.6270752 49.71911621 C71.99730278 49.66261955 73.86149206 49.39435113 76.60827637 47.37561035 C78.90837957 44.11080156 78.72980487 40.90190848 78.68847656 37.05200195 C78.69230347 36.26809082 78.69613037 35.48417969 78.70007324 34.67651367 C78.70279009 33.02236646 78.69544467 31.36817613 78.67871094 29.71411133 C78.65729548 27.18514034 78.67851753 24.65900981 78.70410156 22.13012695 C78.70145824 20.5207457 78.69633317 18.9113662 78.68847656 17.30200195 C78.69657349 16.54773926 78.70467041 15.79347656 78.7130127 15.01635742 C78.65568026 11.79914697 78.48475317 9.64189925 76.60827637 6.97839355 C73.28612434 4.53678802 70.3909058 4.61525376 66.42285156 4.65942383 C65.64840698 4.65241455 64.8739624 4.64540527 64.0760498 4.63818359 C61.51940925 4.62059696 58.96387812 4.63222807 56.40722656 4.64575195 C54.62890409 4.64305721 52.85058305 4.63917495 51.07226562 4.63415527 C47.34653689 4.62825934 43.62119192 4.63682609 39.89550781 4.65551758 C35.12023369 4.67830736 30.3458588 4.66518477 25.57061768 4.64122772 C21.89885688 4.62677221 18.22730921 4.63137456 14.55554199 4.64173889 C12.7948801 4.64440687 11.03419885 4.64113391 9.27355957 4.63182068 C6.81238569 4.62165888 4.35266706 4.63714943 1.89160156 4.65942383 C1.16420776 4.6513269 0.43681396 4.64322998 -0.31262207 4.6348877 C-3.68284966 4.69138436 -5.54703893 4.95965278 -8.29382324 6.97839355 Z " fill="#F0F0F0" transform="translate(14.8427734375,22.822998046875)"/>
<path d="M0 0 C0.77444458 -0.00700928 1.54888916 -0.01401855 2.34680176 -0.02124023 C4.90344232 -0.03882686 7.45897344 -0.02719576 10.015625 -0.01367188 C11.79394747 -0.01636661 13.57226851 -0.02024888 15.35058594 -0.02526855 C19.07631468 -0.03116448 22.80165964 -0.02259774 26.52734375 -0.00390625 C31.30261787 0.01888354 36.07699276 0.00576094 40.85223389 -0.01819611 C44.52399468 -0.03265162 48.19554235 -0.02804927 51.86730957 -0.01768494 C53.62797146 -0.01501696 55.38865271 -0.01828992 57.14929199 -0.02760315 C59.61046587 -0.03776495 62.0701845 -0.0222744 64.53125 0 C65.2586438 -0.00809692 65.9860376 -0.01619385 66.73547363 -0.02453613 C70.10570122 0.03196053 71.9698905 0.30022895 74.7166748 2.31896973 C77.01677801 5.58377852 76.83820331 8.7926716 76.796875 12.64257812 C76.80261536 13.81844482 76.80261536 13.81844482 76.80847168 15.01806641 C76.81118853 16.67221362 76.8038431 18.32640395 76.78710938 19.98046875 C76.76569392 22.50943974 76.78691597 25.03557027 76.8125 27.56445312 C76.80985668 29.17383438 76.80473161 30.78321387 76.796875 32.39257812 C76.80497192 33.14684082 76.81306885 33.90110352 76.82141113 34.67822266 C76.7640787 37.89543311 76.59315161 40.05268083 74.7166748 42.71618652 C71.39452278 45.15779206 68.49930424 45.07932632 64.53125 45.03515625 C63.75680542 45.04216553 62.98236084 45.0491748 62.18444824 45.05639648 C59.62780768 45.07398311 57.07227656 45.06235201 54.515625 45.04882812 C52.73730253 45.05152286 50.95898149 45.05540513 49.18066406 45.0604248 C45.45493532 45.06632073 41.72959036 45.05775399 38.00390625 45.0390625 C33.22863213 45.01627271 28.45425724 45.02939531 23.67901611 45.05335236 C20.00725532 45.06780787 16.33570765 45.06320552 12.66394043 45.05284119 C10.90327854 45.05017321 9.14259729 45.05344617 7.38195801 45.0627594 C4.92078413 45.0729212 2.4610655 45.05743065 0 45.03515625 C-0.7273938 45.04325317 -1.4547876 45.0513501 -2.20422363 45.05969238 C-5.57445122 45.00319572 -7.4386405 44.7349273 -10.1854248 42.71618652 C-12.48552801 39.45137773 -12.30695331 36.24248465 -12.265625 32.39257812 C-12.2694519 31.60866699 -12.27327881 30.82475586 -12.27722168 30.01708984 C-12.27993853 28.36294263 -12.2725931 26.7087523 -12.25585938 25.0546875 C-12.23444392 22.52571651 -12.25566597 19.99958598 -12.28125 17.47070312 C-12.27860668 15.86132187 -12.27348161 14.25194238 -12.265625 12.64257812 C-12.27372192 11.88831543 -12.28181885 11.13405273 -12.29016113 10.35693359 C-12.2328287 7.13972314 -12.06190161 4.98247542 -10.1854248 2.31896973 C-6.86327278 -0.12263581 -3.96805424 -0.04417007 0 0 Z M-8.734375 5.51757812 C-8.9339447 8.07508265 -9.01424326 10.52195953 -9 13.08007812 C-9.00191345 13.82717041 -9.0038269 14.5742627 -9.00579834 15.34399414 C-9.00715998 16.92431983 -9.003465 18.50465671 -8.99511719 20.08496094 C-8.984417 22.50806735 -8.99501279 24.93043236 -9.0078125 27.35351562 C-9.0064909 28.88737143 -9.0039285 30.42122678 -9 31.95507812 C-9.00404846 32.68218994 -9.00809692 33.40930176 -9.01226807 34.15844727 C-9.10169002 38.29227445 -9.10169002 38.29227445 -6.734375 41.51757812 C-4.24580588 41.71581184 -1.86853363 41.79038501 0.62109375 41.77636719 C1.75788071 41.78162415 1.75788071 41.78162415 2.91763306 41.7869873 C5.42955614 41.79580942 7.94119892 41.78995387 10.453125 41.78320312 C12.19425511 41.78454964 13.93538485 41.78649006 15.67651367 41.78900146 C19.32832412 41.79195338 22.98003683 41.78765296 26.63183594 41.77832031 C31.31969481 41.76692572 36.0073247 41.77348483 40.69517517 41.78546524 C44.2913181 41.79268205 47.88740648 41.79039674 51.48355103 41.78520966 C53.2123721 41.78387266 54.94119808 41.78552261 56.67001343 41.79016876 C59.08352841 41.79523109 61.49666923 41.78752812 63.91015625 41.77636719 C64.62918121 41.78041565 65.34820618 41.78446411 66.08901978 41.78863525 C70.12558865 41.86722412 70.12558865 41.86722412 73.265625 39.51757812 C73.4651947 36.9600736 73.54549326 34.51319672 73.53125 31.95507812 C73.53316345 31.20798584 73.5350769 30.46089355 73.53704834 29.69116211 C73.53840998 28.11083642 73.534715 26.53049954 73.52636719 24.95019531 C73.515667 22.5270889 73.52626279 20.10472389 73.5390625 17.68164062 C73.5377409 16.14778482 73.5351785 14.61392947 73.53125 13.08007812 C73.53529846 12.35296631 73.53934692 11.62585449 73.54351807 10.87670898 C73.63294002 6.7428818 73.63294002 6.7428818 71.265625 3.51757812 C68.77705588 3.31934441 66.39978363 3.24477124 63.91015625 3.25878906 C62.77336929 3.2535321 62.77336929 3.2535321 61.61361694 3.24816895 C59.10169386 3.23934683 56.59005108 3.24520238 54.078125 3.25195312 C52.33699489 3.25060661 50.59586515 3.24866619 48.85473633 3.24615479 C45.20292588 3.24320287 41.55121317 3.24750329 37.89941406 3.25683594 C33.21155519 3.26823053 28.5239253 3.26167142 23.83607483 3.24969101 C20.2399319 3.2424742 16.64384352 3.24475951 13.04769897 3.24994659 C11.3188779 3.25128359 9.59005192 3.24963364 7.86123657 3.24498749 C5.44772159 3.23992516 3.03458077 3.24762813 0.62109375 3.25878906 C-0.09793121 3.2547406 -0.81695618 3.25069214 -1.55776978 3.246521 C-5.59433865 3.16793213 -5.59433865 3.16793213 -8.734375 5.51757812 Z " fill="#433C70" transform="translate(16.734375,27.482421875)"/>
<path d="M0 0 C27.06 0 54.12 0 82 0 C82 1.65 82 3.3 82 5 C79.5429414 7.4570586 78.17698591 7.24223338 74.82339478 7.27105713 C74.10436981 7.26700867 73.38534485 7.26296021 72.64453125 7.25878906 C71.88667328 7.2622937 71.12881531 7.26579834 70.34799194 7.26940918 C67.83606886 7.2782313 65.32442608 7.27237574 62.8125 7.265625 C61.07136989 7.26697151 59.33024015 7.26891193 57.58911133 7.27142334 C53.93730088 7.27437525 50.28558817 7.27007483 46.63378906 7.26074219 C41.94593019 7.24934759 37.2583003 7.25590671 32.57044983 7.26788712 C28.9743069 7.27510392 25.37821852 7.27281862 21.78207397 7.26763153 C20.0532529 7.26629454 18.32442692 7.26794449 16.59561157 7.27259064 C14.18209659 7.27765297 11.76895577 7.26994999 9.35546875 7.25878906 C8.2769313 7.26486176 8.2769313 7.26486176 7.17660522 7.27105713 C2.22852896 7.22852896 2.22852896 7.22852896 0 5 C0 3.35 0 1.7 0 0 Z " fill="#6F7BBF" transform="translate(8,62)"/>
<path d="M0 0 C2.86217403 2.43766642 2.98593764 2.86881947 3.41992188 6.91723633 C3.45328399 8.55524243 3.46835746 10.19368547 3.46875 11.83203125 C3.48017029 13.13608162 3.48017029 13.13608162 3.49182129 14.46647644 C3.50262706 16.30647918 3.50547345 18.14654329 3.50097656 19.98657227 C3.500007 22.79223082 3.54156215 25.59512906 3.5859375 28.40039062 C3.59114681 30.19009848 3.59383266 31.97981582 3.59375 33.76953125 C3.61014526 34.60410355 3.62654053 35.43867584 3.64343262 36.29853821 C3.59396377 40.50197137 3.28029481 43.1857991 0.58789062 46.5144043 C-3.48983842 50.43094764 -6.48095116 50.15331572 -11.89038086 50.16113281 C-12.70515396 50.16609772 -13.51992706 50.17106262 -14.35939026 50.17617798 C-17.0612166 50.1908123 -19.76298425 50.19760316 -22.46484375 50.203125 C-24.33809919 50.20887473 -26.2113546 50.21463248 -28.08460999 50.22039795 C-32.01466141 50.23091109 -35.94469235 50.23675193 -39.87475586 50.24023438 C-44.91679195 50.24572446 -49.95855871 50.26976211 -55.00051022 50.29820633 C-58.87033384 50.3168049 -62.74009219 50.32203679 -66.60995674 50.32357025 C-68.46914711 50.32660283 -70.32833617 50.33465165 -72.18748283 50.34775543 C-74.78527372 50.36476053 -77.38240106 50.3629496 -79.98022461 50.35644531 C-80.75175873 50.3656601 -81.52329285 50.37487488 -82.31820679 50.3843689 C-87.54878353 50.34322631 -87.54878353 50.34322631 -90.00123596 48.47772217 C-90.33082809 47.99007385 -90.66042023 47.50242554 -91 47 C-89.95874466 47.00666183 -88.91748932 47.01332367 -87.84468079 47.02018738 C-78.03060331 47.08100924 -68.21656409 47.12597783 -58.40234089 47.15543652 C-53.35677038 47.17109068 -48.31135206 47.19232451 -43.26586914 47.22631836 C-38.39645581 47.25892053 -33.52718884 47.27685489 -28.65767479 47.28463173 C-26.80012902 47.29017368 -24.94259124 47.30099576 -23.0851078 47.31719017 C-20.48275075 47.33897586 -17.88099807 47.34196645 -15.27856445 47.34057617 C-14.5110788 47.351362 -13.74359314 47.36214783 -12.95285034 47.3732605 C-8.46262353 47.34731312 -5.50898579 46.87818486 -2 44 C-0.16058103 41.26614339 0.24768005 39.13344737 0.22705078 35.87402344 C0.22689972 35.07349548 0.22674866 34.27296753 0.22659302 33.44818115 C0.21627045 32.59387512 0.20594788 31.73956909 0.1953125 30.859375 C0.1924826 29.97719299 0.18965271 29.09501099 0.18673706 28.18609619 C0.17555961 25.37392501 0.15045951 22.5620746 0.125 19.75 C0.11496705 17.84115044 0.10584175 15.93229588 0.09765625 14.0234375 C0.07562824 9.34883511 0.04111511 4.67447191 0 0 Z " fill="#030303" transform="translate(97,29)"/>
</svg>
