<?xml version="1.0" encoding="UTF-8"?>
<svg xmlns="http://www.w3.org/2000/svg" xmlns:xlink="http://www.w3.org/1999/xlink" width="400px" height="300px" viewBox="0 0 400 300" version="1.1">
<g id="surface1">
<path style=" stroke:none;fill-rule:nonzero;fill:rgb(60%,63.137255%,89.803922%);fill-opacity:1;" d="M 59.371094 68.464844 C 62.609375 68.449219 65.851562 68.433594 69.1875 68.410156 C 79.9375 68.347656 90.6875 68.316406 101.4375 68.285156 C 106.941406 68.269531 106.941406 68.269531 112.558594 68.25 C 131.984375 68.183594 151.414062 68.144531 170.839844 68.113281 C 190.898438 68.082031 210.957031 67.980469 231.015625 67.855469 C 246.445312 67.78125 261.871094 67.757812 277.300781 67.746094 C 284.695312 67.730469 292.089844 67.691406 299.480469 67.640625 C 309.839844 67.566406 320.199219 67.570312 330.558594 67.589844 C 333.601562 67.550781 336.644531 67.511719 339.78125 67.472656 C 360.449219 67.621094 372.042969 71.273438 388 81 C 402.597656 93.964844 401.871094 106.875 401.875 123.082031 C 401.921875 126.984375 401.921875 126.984375 401.96875 130.957031 C 402.011719 136.441406 402.023438 141.925781 402.003906 147.410156 C 402 155.777344 402.167969 164.132812 402.34375 172.496094 C 402.363281 177.839844 402.375 183.175781 402.375 188.519531 C 402.441406 191.003906 402.507812 193.488281 402.574219 196.050781 C 402.375 208.613281 401.074219 216.585938 390.351562 226.527344 C 374.164062 238.214844 362.257812 237.515625 340.757812 237.675781 C 337.527344 237.707031 334.300781 237.746094 330.976562 237.777344 C 297.1875 238.105469 263.390625 238.253906 229.601562 238.378906 C 213.574219 238.449219 197.554688 238.570312 181.527344 238.753906 C 162.171875 238.964844 142.816406 239.074219 123.457031 239.109375 C 116.09375 239.136719 108.726562 239.207031 101.363281 239.316406 C 36.496094 240.1875 36.496094 240.1875 15.480469 226.738281 C -7.125 207.925781 -1.195312 183.253906 -1.398438 159.261719 C -1.464844 153.609375 -1.574219 147.957031 -1.726562 142.292969 C -1.949219 134.128906 -2.035156 125.964844 -2.09375 117.796875 C -2.183594 115.285156 -2.273438 112.769531 -2.367188 110.179688 C -2.308594 97.527344 -1.183594 89.480469 9.632812 79.449219 C 25.90625 67.757812 37.800781 68.527344 59.371094 68.464844 Z M 59.371094 68.464844 "/>
<path style=" stroke:none;fill-rule:nonzero;fill:rgb(94.117647%,94.117647%,94.117647%);fill-opacity:1;" d="M 59.371094 68.464844 C 62.609375 68.449219 65.851562 68.433594 69.1875 68.410156 C 79.9375 68.347656 90.6875 68.316406 101.4375 68.285156 C 106.941406 68.269531 106.941406 68.269531 112.558594 68.25 C 131.984375 68.183594 151.414062 68.144531 170.839844 68.113281 C 190.898438 68.082031 210.957031 67.980469 231.015625 67.855469 C 246.445312 67.78125 261.871094 67.757812 277.300781 67.746094 C 284.695312 67.730469 292.089844 67.691406 299.480469 67.640625 C 309.839844 67.566406 320.199219 67.570312 330.558594 67.589844 C 333.601562 67.550781 336.644531 67.511719 339.78125 67.472656 C 360.449219 67.621094 372.042969 71.273438 388 81 C 402.597656 93.964844 401.871094 106.875 401.875 123.082031 C 401.921875 126.984375 401.921875 126.984375 401.96875 130.957031 C 402.011719 136.441406 402.023438 141.925781 402.003906 147.410156 C 402 155.777344 402.167969 164.132812 402.34375 172.496094 C 402.363281 177.839844 402.375 183.175781 402.375 188.519531 C 402.441406 191.003906 402.507812 193.488281 402.574219 196.050781 C 402.375 208.613281 401.074219 216.585938 390.351562 226.527344 C 374.164062 238.214844 362.257812 237.515625 340.757812 237.675781 C 337.527344 237.707031 334.300781 237.746094 330.976562 237.777344 C 297.1875 238.105469 263.390625 238.253906 229.601562 238.378906 C 213.574219 238.449219 197.554688 238.570312 181.527344 238.753906 C 162.171875 238.964844 142.816406 239.074219 123.457031 239.109375 C 116.09375 239.136719 108.726562 239.207031 101.363281 239.316406 C 36.496094 240.1875 36.496094 240.1875 15.480469 226.738281 C -7.125 207.925781 -1.195312 183.253906 -1.398438 159.261719 C -1.464844 153.609375 -1.574219 147.957031 -1.726562 142.292969 C -1.949219 134.128906 -2.035156 125.964844 -2.09375 117.796875 C -2.183594 115.285156 -2.273438 112.769531 -2.367188 110.179688 C -2.308594 97.527344 -1.183594 89.480469 9.632812 79.449219 C 25.90625 67.757812 37.800781 68.527344 59.371094 68.464844 Z M 26.195312 89.402344 C 16.996094 99.199219 17.710938 108.824219 17.875 120.375 C 17.859375 122.722656 17.84375 125.082031 17.828125 127.5 C 17.816406 132.464844 17.847656 137.425781 17.914062 142.386719 C 18 149.976562 17.914062 157.550781 17.8125 165.140625 C 17.824219 169.96875 17.84375 174.796875 17.875 179.625 C 17.84375 181.886719 17.808594 184.148438 17.777344 186.480469 C 18.007812 196.128906 18.691406 202.605469 26.195312 210.597656 C 39.484375 217.921875 51.066406 217.6875 66.9375 217.550781 C 71.585938 217.582031 71.585938 217.582031 76.324219 217.617188 C 86.550781 217.667969 96.773438 217.636719 107 217.59375 C 114.113281 217.597656 121.226562 217.613281 128.339844 217.628906 C 143.242188 217.644531 158.144531 217.621094 173.046875 217.566406 C 192.148438 217.496094 211.246094 217.535156 230.347656 217.605469 C 245.035156 217.652344 259.71875 217.636719 274.40625 217.605469 C 281.449219 217.597656 288.492188 217.605469 295.535156 217.636719 C 305.378906 217.664062 315.21875 217.617188 325.0625 217.550781 C 327.972656 217.574219 330.882812 217.597656 333.878906 217.628906 C 347.359375 217.457031 354.816406 216.652344 365.804688 210.597656 C 375.003906 200.800781 374.289062 191.175781 374.125 179.625 C 374.140625 177.277344 374.15625 174.917969 374.171875 172.5 C 374.183594 167.535156 374.152344 162.574219 374.085938 157.613281 C 374 150.023438 374.085938 142.449219 374.1875 134.859375 C 374.175781 130.03125 374.15625 125.203125 374.125 120.375 C 374.15625 118.113281 374.191406 115.851562 374.222656 113.519531 C 373.992188 103.871094 373.308594 97.394531 365.804688 89.402344 C 352.515625 82.078125 340.933594 82.3125 325.0625 82.449219 C 321.964844 82.425781 318.867188 82.40625 315.675781 82.382812 C 305.449219 82.332031 295.226562 82.363281 285 82.40625 C 277.886719 82.402344 270.773438 82.386719 263.660156 82.371094 C 248.757812 82.355469 233.855469 82.378906 218.953125 82.433594 C 199.851562 82.503906 180.753906 82.464844 161.652344 82.394531 C 146.964844 82.347656 132.28125 82.363281 117.59375 82.394531 C 110.550781 82.402344 103.507812 82.394531 96.464844 82.363281 C 86.621094 82.335938 76.78125 82.382812 66.9375 82.449219 C 64.027344 82.425781 61.117188 82.402344 58.121094 82.371094 C 44.640625 82.542969 37.183594 83.347656 26.195312 89.402344 Z M 26.195312 89.402344 "/>
<path style=" stroke:none;fill-rule:nonzero;fill:rgb(26.27451%,23.529412%,43.921569%);fill-opacity:1;" d="M 66.9375 82.449219 C 70.035156 82.425781 73.132812 82.40625 76.324219 82.382812 C 86.550781 82.332031 96.773438 82.363281 107 82.40625 C 114.113281 82.402344 121.226562 82.386719 128.339844 82.371094 C 143.242188 82.355469 158.144531 82.378906 173.046875 82.433594 C 192.148438 82.503906 211.246094 82.464844 230.347656 82.394531 C 245.035156 82.347656 259.71875 82.363281 274.40625 82.394531 C 281.449219 82.402344 288.492188 82.394531 295.535156 82.363281 C 305.378906 82.335938 315.21875 82.382812 325.0625 82.449219 C 327.972656 82.425781 330.882812 82.402344 333.878906 82.371094 C 347.359375 82.542969 354.816406 83.347656 365.804688 89.402344 C 375.003906 99.199219 374.289062 108.824219 374.125 120.375 C 374.148438 123.902344 374.148438 123.902344 374.171875 127.5 C 374.183594 132.464844 374.152344 137.425781 374.085938 142.386719 C 374 149.976562 374.085938 157.550781 374.1875 165.140625 C 374.175781 169.96875 374.15625 174.796875 374.125 179.625 C 374.15625 181.886719 374.191406 184.148438 374.222656 186.480469 C 373.992188 196.128906 373.308594 202.605469 365.804688 210.597656 C 352.515625 217.921875 340.933594 217.6875 325.0625 217.550781 C 321.964844 217.574219 318.867188 217.59375 315.675781 217.617188 C 305.449219 217.667969 295.226562 217.636719 285 217.59375 C 277.886719 217.597656 270.773438 217.613281 263.660156 217.628906 C 248.757812 217.644531 233.855469 217.621094 218.953125 217.566406 C 199.851562 217.496094 180.753906 217.535156 161.652344 217.605469 C 146.964844 217.652344 132.28125 217.636719 117.59375 217.605469 C 110.550781 217.597656 103.507812 217.605469 96.464844 217.636719 C 86.621094 217.664062 76.78125 217.617188 66.9375 217.550781 C 64.027344 217.574219 61.117188 217.597656 58.121094 217.628906 C 44.640625 217.457031 37.183594 216.652344 26.195312 210.597656 C 16.996094 200.800781 17.710938 191.175781 17.875 179.625 C 17.859375 177.277344 17.84375 174.917969 17.828125 172.5 C 17.816406 167.535156 17.847656 162.574219 17.914062 157.613281 C 18 150.023438 17.914062 142.449219 17.8125 134.859375 C 17.824219 130.03125 17.84375 125.203125 17.875 120.375 C 17.84375 118.113281 17.808594 115.851562 17.777344 113.519531 C 18.007812 103.871094 18.691406 97.394531 26.195312 89.402344 C 39.484375 82.078125 51.066406 82.3125 66.9375 82.449219 Z M 32 99 C 31.203125 106.667969 30.878906 114.011719 30.9375 121.6875 C 30.929688 123.933594 30.921875 126.167969 30.914062 128.480469 C 30.910156 133.21875 30.921875 137.957031 30.957031 142.707031 C 31 149.972656 30.957031 157.238281 30.90625 164.507812 C 30.910156 169.105469 30.921875 173.714844 30.9375 178.3125 C 30.921875 180.492188 30.90625 182.675781 30.886719 184.921875 C 30.53125 197.324219 30.53125 197.324219 40 207 C 49.953125 207.589844 59.464844 207.820312 69.421875 207.777344 C 73.96875 207.792969 73.96875 207.792969 78.609375 207.808594 C 88.65625 207.832031 98.703125 207.816406 108.75 207.796875 C 115.714844 207.800781 122.679688 207.808594 129.644531 207.816406 C 144.25 207.820312 158.859375 207.808594 173.464844 207.777344 C 192.214844 207.75 210.96875 207.769531 229.71875 207.800781 C 244.101562 207.824219 258.488281 207.820312 272.871094 207.800781 C 279.785156 207.796875 286.703125 207.800781 293.617188 207.820312 C 303.273438 207.832031 312.925781 207.808594 322.578125 207.777344 C 325.453125 207.792969 328.332031 207.800781 331.292969 207.816406 C 347.441406 208.050781 347.441406 208.050781 360 201 C 360.796875 193.332031 361.121094 185.988281 361.0625 178.3125 C 361.070312 176.066406 361.078125 173.832031 361.085938 171.519531 C 361.089844 166.78125 361.078125 162.042969 361.042969 157.292969 C 361 150.027344 361.042969 142.761719 361.09375 135.492188 C 361.089844 130.894531 361.078125 126.285156 361.0625 121.6875 C 361.078125 119.507812 361.09375 117.324219 361.113281 115.078125 C 361.46875 102.675781 361.46875 102.675781 352 93 C 342.046875 92.410156 332.535156 92.179688 322.578125 92.222656 C 318.03125 92.207031 318.03125 92.207031 313.390625 92.191406 C 303.34375 92.167969 293.296875 92.183594 283.25 92.203125 C 276.285156 92.199219 269.320312 92.191406 262.355469 92.183594 C 247.75 92.179688 233.140625 92.191406 218.535156 92.222656 C 199.785156 92.25 181.03125 92.230469 162.28125 92.199219 C 147.898438 92.175781 133.511719 92.179688 119.128906 92.199219 C 112.214844 92.203125 105.296875 92.199219 98.382812 92.179688 C 88.726562 92.167969 79.074219 92.191406 69.421875 92.222656 C 66.546875 92.207031 63.667969 92.199219 60.707031 92.183594 C 44.558594 91.949219 44.558594 91.949219 32 99 Z M 32 99 "/>
<path style=" stroke:none;fill-rule:nonzero;fill:rgb(43.529412%,48.235294%,74.901961%);fill-opacity:1;" d="M 32 186 C 140.238281 186 248.480469 186 360 186 C 360 190.949219 360 195.902344 360 201 C 350.171875 208.371094 344.707031 207.726562 331.292969 207.816406 C 328.417969 207.800781 325.542969 207.792969 322.578125 207.773438 C 319.546875 207.785156 316.515625 207.796875 313.390625 207.808594 C 303.34375 207.832031 293.296875 207.816406 283.25 207.796875 C 276.285156 207.800781 269.320312 207.808594 262.355469 207.816406 C 247.75 207.820312 233.140625 207.808594 218.535156 207.785156 C 199.785156 207.75 181.03125 207.769531 162.28125 207.800781 C 147.898438 207.824219 133.511719 207.820312 119.128906 207.800781 C 112.214844 207.796875 105.296875 207.800781 98.382812 207.820312 C 88.726562 207.832031 79.074219 207.808594 69.421875 207.773438 C 65.109375 207.796875 65.109375 207.796875 60.707031 207.816406 C 40.914062 207.683594 40.914062 207.683594 32 201 C 32 196.050781 32 191.097656 32 186 Z M 32 186 "/>
<path style=" stroke:none;fill-rule:nonzero;fill:rgb(1.176471%,1.176471%,1.176471%);fill-opacity:1;" d="M 388 87 C 399.449219 94.3125 399.945312 95.605469 401.679688 107.753906 C 401.8125 112.664062 401.875 117.582031 401.875 122.496094 C 401.921875 126.410156 401.921875 126.410156 401.96875 130.402344 C 402.011719 135.917969 402.023438 141.441406 402.003906 146.957031 C 402 155.378906 402.167969 163.785156 402.34375 172.199219 C 402.363281 177.566406 402.375 182.941406 402.375 188.308594 C 402.441406 190.808594 402.507812 193.316406 402.574219 195.894531 C 402.375 208.503906 401.121094 216.558594 390.351562 226.542969 C 374.039062 238.292969 362.078125 237.457031 340.4375 237.480469 C 337.179688 237.496094 333.921875 237.515625 330.5625 237.527344 C 319.753906 237.574219 308.949219 237.589844 298.140625 237.609375 C 290.648438 237.628906 283.15625 237.644531 275.660156 237.660156 C 259.941406 237.691406 244.222656 237.707031 228.5 237.722656 C 208.332031 237.738281 188.164062 237.808594 167.996094 237.894531 C 152.519531 237.949219 137.039062 237.964844 121.558594 237.972656 C 114.125 237.980469 106.6875 238.003906 99.25 238.042969 C 88.859375 238.097656 78.46875 238.089844 68.078125 238.066406 C 64.992188 238.097656 61.90625 238.125 58.726562 238.152344 C 37.804688 238.03125 37.804688 238.03125 27.996094 232.433594 C 26.675781 230.972656 25.359375 229.503906 24 228 C 28.164062 228.019531 32.328125 228.042969 36.621094 228.058594 C 75.878906 228.238281 115.132812 228.378906 154.390625 228.46875 C 174.574219 228.515625 194.753906 228.574219 214.9375 228.679688 C 234.414062 228.777344 253.890625 228.832031 273.371094 228.855469 C 280.800781 228.871094 288.230469 228.902344 295.660156 228.949219 C 306.070312 229.019531 316.476562 229.027344 326.886719 229.019531 C 329.957031 229.054688 333.027344 229.082031 336.1875 229.121094 C 354.148438 229.042969 365.964844 227.636719 380 219 C 387.359375 210.796875 388.992188 204.398438 388.90625 194.625 C 388.90625 192.222656 388.90625 189.820312 388.90625 187.339844 C 388.863281 184.78125 388.824219 182.222656 388.78125 179.578125 C 388.769531 176.929688 388.757812 174.285156 388.746094 171.558594 C 388.703125 163.121094 388.601562 154.6875 388.5 146.25 C 388.460938 140.527344 388.421875 134.792969 388.390625 129.070312 C 388.300781 115.050781 388.164062 101.019531 388 87 Z M 388 87 "/>
</g>
</svg>
